<svg width="40" height="" viewBox="0 0 217 162" fill="none" xmlns="http://www.w3.org/2000/svg">
<g clip-path="url(#clip0_5_312)">
<path d="M87.9164 109.853C87.9164 109.853 117.797 106.357 128.255 100.822C138.713 95.2868 216.402 92.6649 216.402 109.853C216.402 127.041 127.06 134.616 127.06 134.616L80.1475 131.994L87.9164 109.853Z" fill="#FBBEBE"/>
<path opacity="0.1" d="M87.9164 109.853C87.9164 109.853 117.797 106.357 128.255 100.822C138.713 95.2868 216.402 92.6649 216.402 109.853C216.402 127.041 127.06 134.616 127.06 134.616L80.1475 131.994L87.9164 109.853Z" fill="black"/>
<path d="M96.5817 106.648L90.3068 124.419L-8 125.585V99.3654C-8 99.3654 29.6494 90.917 59.5299 108.979C59.5299 108.979 94.7888 104.901 96.5817 106.648Z" fill="#066E3A"/>
<path opacity="0.1" d="M96.5817 106.62L90.3068 124.391L-8 125.556V99.3367C-8 99.3367 29.6494 90.8883 59.5299 108.95C59.5299 108.95 94.7888 104.872 96.5817 106.62Z" fill="black"/>
<path d="M208.976 99.2197C208.976 100.213 206.693 100.95 206.468 101.908C206.245 102.858 207.602 104.302 207.173 105.209C206.729 106.137 206.205 107.026 205.606 107.867C205.043 108.652 203.306 108.537 202.593 109.274C201.896 109.942 201.157 110.569 200.381 111.15C199.625 111.762 198.6 111.891 197.741 112.455C196.923 112.992 197.022 114.96 196.118 115.448C195.254 115.915 193.932 115.54 192.995 115.959C192.095 116.362 191.621 117.819 190.659 118.175C189.731 118.519 188.583 118.371 187.603 118.669C186.654 118.957 185.592 118.91 184.598 119.152C183.632 119.388 182.894 120.799 181.89 120.989C180.911 121.175 179.764 120.68 178.752 120.821C177.764 120.958 176.615 119.738 175.598 119.831C174.603 119.921 173.665 120.486 172.646 120.531C171.647 120.576 170.659 121.005 169.64 121.005C168.62 121.005 167.569 121.937 166.569 121.892C165.55 121.847 164.628 120.434 163.633 120.343C162.616 120.251 161.403 121.727 160.415 121.59C159.403 121.45 158.601 120.005 157.623 119.819C156.618 119.629 155.32 120.662 154.354 120.426C153.36 120.184 152.769 118.503 151.82 118.215C150.84 117.917 149.624 118.32 148.697 117.977C147.735 117.62 146.563 117.678 145.664 117.275C144.726 116.855 144.054 115.862 143.19 115.395C142.286 114.907 141.869 113.695 141.051 113.158C140.192 112.594 138.882 112.666 138.126 112.053C137.328 111.406 135.832 111.372 135.159 110.676C134.446 109.939 134.158 108.703 133.596 107.917C133.003 107.09 134.166 105.342 133.752 104.468C133.323 103.561 131.529 103.192 131.306 102.242C131.076 101.25 130.959 100.237 130.955 99.2198C130.955 98.2269 132.489 97.468 132.714 96.5103C132.936 95.5603 131.807 94.1959 132.236 93.2886C132.65 92.4143 132.597 91.0704 133.19 90.2433C133.752 89.4581 135.156 89.1502 135.868 88.4139C136.542 87.7177 137.747 87.5234 138.546 86.8763C139.302 86.2634 139.205 84.4149 140.065 83.8506C140.882 83.3141 142.023 83.0693 142.928 82.5807C143.792 82.1139 145.014 82.1925 145.951 81.7729C146.851 81.3701 148.26 82.1638 149.222 81.8075C150.149 81.4639 150.901 80.713 151.882 80.4154C152.831 80.1274 153.277 77.9309 154.271 77.6884C155.237 77.4529 156.425 77.8438 157.43 77.6535C158.408 77.4681 159.725 79.2011 160.737 79.0607C161.726 78.9236 162.465 76.6101 163.481 76.5178C164.476 76.4275 165.598 77.6257 166.618 77.5801C167.617 77.5354 168.62 78.2374 169.64 78.2374C170.659 78.2374 171.674 77.2739 172.673 77.3186C173.692 77.3642 174.591 78.6375 175.586 78.7279C176.603 78.8202 177.851 76.8833 178.839 77.0205C179.851 77.1609 180.633 78.6581 181.612 78.8435C182.617 79.0338 183.875 78.1042 184.841 78.3398C185.836 78.5823 186.434 80.1736 187.383 80.4617C188.364 80.7593 188.968 81.8819 189.895 82.2255C190.857 82.5818 192.644 80.9147 193.543 81.3176C194.481 81.7372 195.29 82.4635 196.154 82.9304C197.058 83.419 198.496 83.1732 199.313 83.7098C200.173 84.2742 200.384 85.789 201.14 86.402C201.938 87.0492 203.255 87.2441 203.928 87.9404C204.641 88.6768 204.74 89.9964 205.302 90.7817C205.894 91.6088 205.876 92.7547 206.289 93.6289C206.719 94.536 207.864 95.2221 208.087 96.1719C208.311 97.1295 208.976 98.2271 208.976 99.2197Z" fill="#3F3D56"/>
<path d="M101.363 117.428C101.363 117.428 135.128 100.531 156.94 106.94C178.753 113.349 209.231 102.279 212.817 106.066C216.402 109.853 221.482 150.638 178.454 152.969C135.426 155.3 98.6733 145.977 98.6733 145.977L101.363 117.428Z" fill="#FBBEBE"/>
<path d="M93.411 115.628C93.411 115.628 106.741 114.806 106.143 119.467C105.546 124.128 104.948 160.252 101.363 161.126C97.7769 162 69.3905 162 57.7371 162H-8V106.15C-8 106.15 38.6135 103.444 61.9203 114.806C61.9203 114.806 89.9415 114.411 93.411 115.628Z" fill="#066E3A"/>
<path d="M155.859 28.2699C154.585 28.34 153.357 28.7547 152.311 29.4674C151.266 30.1802 150.444 31.1627 149.94 32.305C148.459 35.7933 150.365 39.8908 153.226 42.4344C156.087 44.9781 159.762 46.4321 163.101 48.3432C167.586 50.9101 171.616 54.4734 173.86 59.0475C176.104 63.6216 176.343 69.2876 173.705 73.6574C171.257 77.7133 166.805 80.1408 162.559 82.3795" stroke="#3F3D56" stroke-miterlimit="10"/>
<path d="M167.811 7.0033C166.537 7.07344 165.309 7.48812 164.263 8.20084C163.218 8.91356 162.396 9.89614 161.892 11.0384C160.412 14.5267 162.317 18.6242 165.178 21.1678C168.039 23.7115 171.714 25.1655 175.053 27.0766C179.538 29.6435 183.568 33.2068 185.812 37.7809C188.056 42.355 188.295 48.021 185.657 52.3908C183.209 56.4467 178.757 58.8742 174.511 61.1129" stroke="#3F3D56" stroke-miterlimit="10"/>
<path d="M207.109 11.8945C206.058 11.1898 204.826 10.7844 203.552 10.724C202.277 10.6635 201.011 10.9503 199.895 11.5522C196.534 13.4271 195.468 17.8045 196.133 21.5234C196.798 25.2422 198.791 28.5853 200.231 32.0894C202.166 36.796 203.115 42.0189 202.018 46.9751C200.92 51.9313 197.551 56.554 192.722 58.4349C188.239 60.1807 183.195 59.4431 178.432 58.6792" stroke="#3F3D56" stroke-miterlimit="10"/>
<path d="M172.478 55.8582C176.439 55.8582 179.649 54.3377 179.649 52.4622C179.649 50.5866 176.439 49.0662 172.478 49.0662C168.517 49.0662 165.307 50.5866 165.307 52.4622C165.307 54.3377 168.517 55.8582 172.478 55.8582Z" fill="#57B894"/>
<path d="M171.582 55.2755C175.542 55.2755 178.753 53.7551 178.753 51.8795C178.753 50.004 175.542 48.4835 171.582 48.4835C167.621 48.4835 164.41 50.004 164.41 51.8795C164.41 53.7551 167.621 55.2755 171.582 55.2755Z" stroke="#3F3D56" stroke-miterlimit="10"/>
<path d="M188.016 52.945C191.977 52.945 195.187 51.4245 195.187 49.549C195.187 47.6734 191.977 46.153 188.016 46.153C184.055 46.153 180.845 47.6734 180.845 49.549C180.845 51.4245 184.055 52.945 188.016 52.945Z" fill="#57B894"/>
<path d="M187.12 52.3623C191.08 52.3623 194.291 50.8419 194.291 48.9663C194.291 47.0908 191.08 45.5703 187.12 45.5703C183.159 45.5703 179.948 47.0908 179.948 48.9663C179.948 50.8419 183.159 52.3623 187.12 52.3623Z" stroke="#3F3D56" stroke-miterlimit="10"/>
<path d="M190.406 65.7632C194.367 65.7632 197.578 64.2428 197.578 62.3672C197.578 60.4916 194.367 58.9712 190.406 58.9712C186.446 58.9712 183.235 60.4916 183.235 62.3672C183.235 64.2428 186.446 65.7632 190.406 65.7632Z" fill="#57B894"/>
<path d="M189.51 65.1806C193.471 65.1806 196.681 63.6601 196.681 61.7846C196.681 59.909 193.471 58.3885 189.51 58.3885C185.549 58.3885 182.339 59.909 182.339 61.7846C182.339 63.6601 185.549 65.1806 189.51 65.1806Z" stroke="#3F3D56" stroke-miterlimit="10"/>
<path d="M188.912 33.7175C192.873 33.7175 196.084 32.1971 196.084 30.3215C196.084 28.446 192.873 26.9255 188.912 26.9255C184.952 26.9255 181.741 28.446 181.741 30.3215C181.741 32.1971 184.952 33.7175 188.912 33.7175Z" fill="#57B894"/>
<path d="M188.016 33.1349C191.977 33.1349 195.187 31.6145 195.187 29.7389C195.187 27.8633 191.977 26.3429 188.016 26.3429C184.055 26.3429 180.845 27.8633 180.845 29.7389C180.845 31.6145 184.055 33.1349 188.016 33.1349Z" stroke="#3F3D56" stroke-miterlimit="10"/>
<path d="M170.984 31.6784C174.945 31.6784 178.155 30.1579 178.155 28.2824C178.155 26.4068 174.945 24.8864 170.984 24.8864C167.023 24.8864 163.813 26.4068 163.813 28.2824C163.813 30.1579 167.023 31.6784 170.984 31.6784Z" fill="#57B894"/>
<path d="M170.088 31.0957C174.048 31.0957 177.259 29.5753 177.259 27.6997C177.259 25.8242 174.048 24.3037 170.088 24.3037C166.127 24.3037 162.916 25.8242 162.916 27.6997C162.916 29.5753 166.127 31.0957 170.088 31.0957Z" stroke="#3F3D56" stroke-miterlimit="10"/>
<path d="M179.052 24.3953C183.012 24.3953 186.223 22.8748 186.223 20.9993C186.223 19.1237 183.012 17.6033 179.052 17.6033C175.091 17.6033 171.88 19.1237 171.88 20.9993C171.88 22.8748 175.091 24.3953 179.052 24.3953Z" fill="#57B894"/>
<path d="M178.155 23.8126C182.116 23.8126 185.327 22.2922 185.327 20.4166C185.327 18.5411 182.116 17.0206 178.155 17.0206C174.195 17.0206 170.984 18.5411 170.984 20.4166C170.984 22.2922 174.195 23.8126 178.155 23.8126Z" stroke="#3F3D56" stroke-miterlimit="10"/>
<path d="M196.681 25.8518C200.642 25.8518 203.853 24.3314 203.853 22.4558C203.853 20.5803 200.642 19.0598 196.681 19.0598C192.721 19.0598 189.51 20.5803 189.51 22.4558C189.51 24.3314 192.721 25.8518 196.681 25.8518Z" fill="#57B894"/>
<path d="M195.785 25.2692C199.745 25.2692 202.956 23.7487 202.956 21.8732C202.956 19.9976 199.745 18.4772 195.785 18.4772C191.824 18.4772 188.614 19.9976 188.614 21.8732C188.614 23.7487 191.824 25.2692 195.785 25.2692Z" stroke="#3F3D56" stroke-miterlimit="10"/>
<path d="M209.829 35.4656C213.789 35.4656 217 33.9452 217 32.0696C217 30.194 213.789 28.6736 209.829 28.6736C205.868 28.6736 202.657 30.194 202.657 32.0696C202.657 33.9452 205.868 35.4656 209.829 35.4656Z" fill="#57B894"/>
<path d="M208.932 34.883C212.893 34.883 216.104 33.3625 216.104 31.4869C216.104 29.6114 212.893 28.0909 208.932 28.0909C204.972 28.0909 201.761 29.6114 201.761 31.4869C201.761 33.3625 204.972 34.883 208.932 34.883Z" stroke="#3F3D56" stroke-miterlimit="10"/>
<path d="M163.514 18.5687C167.475 18.5687 170.685 17.0483 170.685 15.1727C170.685 13.2972 167.475 11.7767 163.514 11.7767C159.553 11.7767 156.343 13.2972 156.343 15.1727C156.343 17.0483 159.553 18.5687 163.514 18.5687Z" fill="#57B894"/>
<path d="M162.617 17.9861C166.578 17.9861 169.789 16.4657 169.789 14.5901C169.789 12.7145 166.578 11.1941 162.617 11.1941C158.657 11.1941 155.446 12.7145 155.446 14.5901C155.446 16.4657 158.657 17.9861 162.617 17.9861Z" stroke="#3F3D56" stroke-miterlimit="10"/>
<path d="M167.996 7.49843C171.957 7.49843 175.167 5.97799 175.167 4.10243C175.167 2.22686 171.957 0.706421 167.996 0.706421C164.035 0.706421 160.825 2.22686 160.825 4.10243C160.825 5.97799 164.035 7.49843 167.996 7.49843Z" fill="#57B894"/>
<path d="M167.1 6.91579C171.06 6.91579 174.271 5.39535 174.271 3.51978C174.271 1.64422 171.06 0.123779 167.1 0.123779C163.139 0.123779 159.928 1.64422 159.928 3.51978C159.928 5.39535 163.139 6.91579 167.1 6.91579Z" stroke="#3F3D56" stroke-miterlimit="10"/>
<path d="M209.53 15.6555C213.49 15.6555 216.701 14.1351 216.701 12.2595C216.701 10.384 213.49 8.86353 209.53 8.86353C205.569 8.86353 202.359 10.384 202.359 12.2595C202.359 14.1351 205.569 15.6555 209.53 15.6555Z" fill="#57B894"/>
<path d="M208.633 15.0729C212.594 15.0729 215.805 13.5525 215.805 11.6769C215.805 9.80133 212.594 8.28088 208.633 8.28088C204.673 8.28088 201.462 9.80133 201.462 11.6769C201.462 13.5525 204.673 15.0729 208.633 15.0729Z" stroke="#3F3D56" stroke-miterlimit="10"/>
<path d="M143.494 42.4573C147.455 42.4573 150.665 40.9369 150.665 39.0613C150.665 37.1857 147.455 35.6653 143.494 35.6653C139.533 35.6653 136.323 37.1857 136.323 39.0613C136.323 40.9369 139.533 42.4573 143.494 42.4573Z" fill="#57B894"/>
<path d="M142.598 41.8747C146.558 41.8747 149.769 40.3542 149.769 38.4786C149.769 36.6031 146.558 35.0826 142.598 35.0826C138.637 35.0826 135.426 36.6031 135.426 38.4786C135.426 40.3542 138.637 41.8747 142.598 41.8747Z" stroke="#3F3D56" stroke-miterlimit="10"/>
<path d="M168.295 40.7094C172.255 40.7094 175.466 39.1889 175.466 37.3134C175.466 35.4378 172.255 33.9174 168.295 33.9174C164.334 33.9174 161.124 35.4378 161.124 37.3134C161.124 39.1889 164.334 40.7094 168.295 40.7094Z" fill="#57B894"/>
<path d="M167.398 40.1267C171.359 40.1267 174.57 38.6063 174.57 36.7307C174.57 34.8552 171.359 33.3347 167.398 33.3347C163.438 33.3347 160.227 34.8552 160.227 36.7307C160.227 38.6063 163.438 40.1267 167.398 40.1267Z" stroke="#3F3D56" stroke-miterlimit="10"/>
<path d="M200.865 43.3313C204.825 43.3313 208.036 41.8109 208.036 39.9353C208.036 38.0597 204.825 36.5393 200.865 36.5393C196.904 36.5393 193.693 38.0597 193.693 39.9353C193.693 41.8109 196.904 43.3313 200.865 43.3313Z" fill="#57B894"/>
<path d="M199.968 42.7487C203.929 42.7487 207.14 41.2282 207.14 39.3527C207.14 37.4771 203.929 35.9567 199.968 35.9567C196.008 35.9567 192.797 37.4771 192.797 39.3527C192.797 41.2282 196.008 42.7487 199.968 42.7487Z" stroke="#3F3D56" stroke-miterlimit="10"/>
<path d="M183.534 44.4966C187.494 44.4966 190.705 42.9762 190.705 41.1006C190.705 39.225 187.494 37.7046 183.534 37.7046C179.573 37.7046 176.363 39.225 176.363 41.1006C176.363 42.9762 179.573 44.4966 183.534 44.4966Z" fill="#57B894"/>
<path d="M182.637 43.914C186.598 43.914 189.809 42.3935 189.809 40.518C189.809 38.6424 186.598 37.1219 182.637 37.1219C178.677 37.1219 175.466 38.6424 175.466 40.518C175.466 42.3935 178.677 43.914 182.637 43.914Z" stroke="#3F3D56" stroke-miterlimit="10"/>
<path d="M184.729 15.3642C188.69 15.3642 191.9 13.8437 191.9 11.9681C191.9 10.0926 188.69 8.57214 184.729 8.57214C180.768 8.57214 177.558 10.0926 177.558 11.9681C177.558 13.8437 180.768 15.3642 184.729 15.3642Z" fill="#57B894"/>
<path d="M183.833 14.7815C187.793 14.7815 191.004 13.2611 191.004 11.3855C191.004 9.50995 187.793 7.9895 183.833 7.9895C179.872 7.9895 176.661 9.50995 176.661 11.3855C176.661 13.2611 179.872 14.7815 183.833 14.7815Z" stroke="#3F3D56" stroke-miterlimit="10"/>
<path d="M153.952 33.4263C157.913 33.4263 161.124 31.9058 161.124 30.0303C161.124 28.1547 157.913 26.6343 153.952 26.6343C149.992 26.6343 146.781 28.1547 146.781 30.0303C146.781 31.9058 149.992 33.4263 153.952 33.4263Z" fill="#57B894"/>
<path d="M153.056 32.8436C157.016 32.8436 160.227 31.3232 160.227 29.4476C160.227 27.5721 157.016 26.0516 153.056 26.0516C149.095 26.0516 145.885 27.5721 145.885 29.4476C145.885 31.3232 149.095 32.8436 153.056 32.8436Z" stroke="#3F3D56" stroke-miterlimit="10"/>
<path d="M158.135 46.5359C162.096 46.5359 165.307 45.0155 165.307 43.1399C165.307 41.2643 162.096 39.7439 158.135 39.7439C154.175 39.7439 150.964 41.2643 150.964 43.1399C150.964 45.0155 154.175 46.5359 158.135 46.5359Z" fill="#57B894"/>
<path d="M157.239 45.9533C161.2 45.9533 164.41 44.4328 164.41 42.5573C164.41 40.6817 161.2 39.1613 157.239 39.1613C153.278 39.1613 150.068 40.6817 150.068 42.5573C150.068 44.4328 153.278 45.9533 157.239 45.9533Z" stroke="#3F3D56" stroke-miterlimit="10"/>
<g opacity="0.3">
<path d="M158.302 66.3279C159.314 64.562 159.499 62.784 158.715 62.3566C157.93 61.9292 156.474 63.0142 155.462 64.7801C154.449 66.546 154.265 68.324 155.049 68.7514C155.833 69.1788 157.29 68.0938 158.302 66.3279Z" fill="#57B894"/>
<path d="M157.829 66.5947C158.842 64.8288 159.026 63.0508 158.242 62.6234C157.458 62.196 156.001 63.281 154.989 65.0469C153.977 66.8128 153.792 68.5909 154.576 69.0183C155.361 69.4457 156.817 68.3606 157.829 66.5947Z" stroke="#3F3D56" stroke-miterlimit="10"/>
</g>
<g opacity="0.3">
<path d="M195.682 74.7934C196.282 74.1406 195.514 72.5177 193.968 71.1686C192.422 69.8195 190.683 69.255 190.083 69.9078C189.484 70.5606 190.252 72.1835 191.798 73.5326C193.344 74.8817 195.083 75.4462 195.682 74.7934Z" fill="#57B894"/>
<path d="M195.519 74.2852C196.118 73.6324 195.35 72.0095 193.804 70.6604C192.258 69.3113 190.519 68.7468 189.92 69.3996C189.32 70.0525 190.088 71.6753 191.634 73.0245C193.18 74.3736 194.919 74.938 195.519 74.2852Z" stroke="#3F3D56" stroke-miterlimit="10"/>
</g>
<g opacity="0.3">
<path d="M162.216 56.44C162.816 55.7872 162.048 54.1643 160.502 52.8152C158.956 51.4661 157.217 50.9016 156.617 51.5544C156.018 52.2072 156.786 53.8301 158.332 55.1792C159.878 56.5284 161.617 57.0928 162.216 56.44Z" fill="#57B894"/>
<path d="M162.053 55.9318C162.652 55.279 161.884 53.6561 160.338 52.307C158.792 50.9579 157.053 50.3934 156.453 51.0462C155.854 51.6991 156.622 53.3219 158.168 54.6711C159.714 56.0202 161.453 56.5846 162.053 55.9318Z" stroke="#3F3D56" stroke-miterlimit="10"/>
</g>
</g>
<defs>
<clipPath id="clip0_5_312">
<rect width="225" height="162" fill="white" transform="translate(-8)"/>
</clipPath>
</defs>
</svg>
